<?xml version="1.0" encoding="UTF-8"?>
<svg version="1.1" xmlns="http://www.w3.org/2000/svg" width="1080" height="1080">
<path d="M0 0 C13.27784692 11.03370378 21.13305291 24.27177647 28.4140625 39.7265625 C31.90105135 36.30184131 35.17488465 32.76538867 38.4140625 29.1015625 C61.70401584 3.45157117 94.85405162 -11.45388473 129.3359375 -13.44189453 C159.87387879 -14.62365748 189.1720586 -8.03773498 214.4140625 9.7265625 C215.36410156 10.39171875 216.31414062 11.056875 217.29296875 11.7421875 C230.81567605 21.54482799 242.29125041 33.13695004 252.7890625 46.1015625 C271.57762939 69.24357782 293.01883038 82.53783163 319.76123047 95.38305664 C327.22720161 99.16413884 327.22720161 99.16413884 328.20703125 102.11328125 C327.10809913 105.73488514 325.24365651 106.50733233 322.0300293 108.31469727 C320.88981323 108.92075806 320.88981323 108.92075806 319.7265625 109.5390625 C318.15570776 110.41830276 316.58540007 111.29852107 315.015625 112.1796875 C314.23348633 112.61087891 313.45134766 113.04207031 312.64550781 113.48632812 C288.53101469 126.88913174 268.15826498 143.23454816 260.1640625 170.6015625 C258.1833168 179.98404213 258.33269158 189.90449349 258.12451172 199.45361328 C257.4139397 230.30868044 252.38441214 260.11748796 240.4140625 288.7265625 C240.07648926 289.5402832 239.73891602 290.35400391 239.39111328 291.19238281 C224.28028584 327.19557167 199.56646751 360.93604425 168.4140625 384.7265625 C167.78822266 385.20706055 167.16238281 385.68755859 166.51757812 386.18261719 C143.49543622 403.72798174 118.00780675 417.02009675 90.4140625 425.7265625 C89.66302246 425.96358887 88.91198242 426.20061523 88.13818359 426.44482422 C30.79814731 444.17455073 -33.83870736 440.08635569 -87.20654297 412.03222656 C-102.88198116 403.43051884 -102.88198116 403.43051884 -106.5859375 399.7265625 C-106.7734375 397.2890625 -106.7734375 397.2890625 -106.5859375 394.7265625 C-104.27260808 392.41323308 -103.31678863 392.29675169 -100.16796875 391.71875 C-99.25523193 391.54134277 -98.34249512 391.36393555 -97.40209961 391.18115234 C-96.41089111 390.9898877 -95.41968262 390.79862305 -94.3984375 390.6015625 C-56.00414343 382.6392377 -23.73549432 363.52763755 4.4140625 336.7265625 C5.06890625 336.11296875 5.72375 335.499375 6.3984375 334.8671875 C11.55589257 329.89899683 16.02194355 324.37046641 20.4140625 318.7265625 C20.93419922 318.06108398 21.45433594 317.39560547 21.99023438 316.70996094 C35.42512154 299.38439257 45.48255921 280.53222118 55.77490234 261.24804688 C69.98309772 234.64043266 84.77391323 208.26901587 105.3515625 185.9765625 C107.16463344 183.99866692 108.88445264 181.97459433 110.6015625 179.9140625 C139.33383351 147.16190954 179.66527728 128.46027594 221.71484375 120.0390625 C222.45644241 119.88981323 223.19804108 119.74056396 223.96211243 119.58679199 C227.68701492 118.83930486 231.41381237 118.10678775 235.14672852 117.40039062 C244.02229137 115.67953459 252.07333903 113.31017138 260.4140625 109.7265625 C259.66745361 109.43539551 258.92084473 109.14422852 258.15161133 108.84423828 C244.84606868 103.5958532 232.1675431 97.26036666 221.4140625 87.7265625 C220.78371094 87.21480469 220.15335937 86.70304687 219.50390625 86.17578125 C215.73705546 83.10434906 212.57227019 79.74551924 209.4140625 76.05859375 C191.05498562 54.65162325 170.62692795 39.91096795 141.7890625 37.5078125 C119.90657189 36.72629498 99.98943813 46.11947222 83.4140625 59.7265625 C82.43695313 60.50128906 81.45984375 61.27601562 80.453125 62.07421875 C64.15900624 75.72542322 55.58273117 98.2342996 52.40112305 118.62475586 C51.61173074 123.52889426 51.61173074 123.52889426 49.4140625 125.7265625 C46.39915969 125.89979365 43.46772371 125.95486117 40.453125 125.9296875 C38.60025347 125.94025037 36.74738844 125.95200931 34.89453125 125.96484375 C31.98063953 125.97508847 29.06765637 125.9767609 26.15380859 125.95654297 C14.54829096 125.89496997 5.37548883 126.03196566 -4.5859375 132.7265625 C-5.79633777 133.44970219 -7.0083064 134.17023132 -8.22265625 134.88671875 C-9.73279297 135.82837891 -9.73279297 135.82837891 -11.2734375 136.7890625 C-28.99039027 147.36102132 -52.19909558 149.53691354 -72.2109375 145.5390625 C-74.34896808 144.98276438 -76.47550311 144.37979219 -78.5859375 143.7265625 C-80.19082031 143.23349609 -80.19082031 143.23349609 -81.828125 142.73046875 C-103.15870057 135.33893837 -119.39174667 119.57800654 -129.17578125 99.45703125 C-138.45108084 78.08351481 -137.31587238 54.27334913 -129.33642578 32.62255859 C-121.30848117 12.34116047 -106.1060733 -1.79655443 -86.47851562 -10.46875 C-58.27211651 -22.46156366 -24.22079933 -19.44822803 0 0 Z " fill="#FFFFFF" transform="translate(280.5859375,31.2734375)"/>
<path d="M0 0 C1.99954746 -0.04254356 4.00041636 -0.04080783 6 0 C7.6996818 1.6996818 7.17226431 3.79089183 7.1875 6.125 C6.56635161 63.20853726 -13.91862472 119.03439038 -53 161 C-53.56267578 161.60650391 -54.12535156 162.21300781 -54.70507812 162.83789062 C-68.28355406 177.31066794 -83.30636101 188.99444303 -101 198 C-101.62084473 198.32194336 -102.24168945 198.64388672 -102.88134766 198.97558594 C-109.92655276 202.59544678 -117.03588801 205.53070528 -124.625 207.8125 C-125.59070923 208.10495605 -125.59070923 208.10495605 -126.57592773 208.40332031 C-137.34222087 211.44000143 -148.22708522 212.36863654 -159.375 212.3125 C-161.14870972 212.30404053 -161.14870972 212.30404053 -162.95825195 212.29541016 C-171.66688304 212.17454836 -179.62133447 211.54249161 -188 209 C-188.9585791 208.70996094 -188.9585791 208.70996094 -189.93652344 208.4140625 C-204.85562514 203.75049381 -216.79278124 195.89126068 -228 185 C-228.80824219 184.26523437 -229.61648437 183.53046875 -230.44921875 182.7734375 C-256.27431294 158.52947152 -274.28216095 116.27103311 -276.2109375 81.16015625 C-276.24433047 78.08466405 -276.26166206 75.06446527 -276 72 C-275 71 -275 71 -272.84765625 70.5078125 C-268.32061607 71.29026389 -266.3364699 74.4915922 -263.4375 77.875 C-239.93312604 104.09532546 -208.29898179 120.05273877 -173.00439453 122.11669922 C-128.0991797 124.28587686 -86.95860769 102.80088583 -54 74 C-53.15308594 73.27683594 -52.30617188 72.55367188 -51.43359375 71.80859375 C-46.48920276 67.53349427 -42.18758232 63.00919657 -38 58 C-37.28585937 57.19691406 -36.57171875 56.39382812 -35.8359375 55.56640625 C-23.55231668 41.4622488 -13.82481812 25.38325953 -5.04199219 8.92675781 C-3.41564901 5.91947095 -1.7086604 2.9611626 0 0 Z " fill="#FFFFFF" transform="translate(316,173)"/>
<path d="M0 0 C0.78375 0.04125 1.5675 0.0825 2.375 0.125 C2.67792969 0.85493164 2.98085938 1.58486328 3.29296875 2.33691406 C26.01138776 56.98344963 56.86341438 113.11549894 106.375 148.125 C106.94959961 148.53862793 107.52419922 148.95225586 108.11621094 149.37841797 C139.15667878 171.5659743 170.92791672 179.61609606 208.63085938 180.73046875 C209.74654297 180.76785156 210.86222656 180.80523437 212.01171875 180.84375 C213.01936279 180.87404297 214.02700684 180.90433594 215.06518555 180.93554688 C217.375 181.125 217.375 181.125 218.375 182.125 C218.72265625 184.4296875 218.72265625 184.4296875 218.375 187.125 C216.49609375 189.1953125 216.49609375 189.1953125 213.8125 191.25 C212.80574219 192.02472656 211.79898438 192.79945313 210.76171875 193.59765625 C210.21306152 194.0064502 209.6644043 194.41524414 209.09912109 194.83642578 C207.32692273 196.160932 205.57949953 197.51417439 203.83203125 198.87109375 C192.22188309 207.77246517 180.56150179 214.28882106 166.6875 219 C165.42365479 219.42974121 165.42365479 219.42974121 164.13427734 219.86816406 C152.4656648 223.62435892 141.02629858 224.53571497 128.8125 224.5 C127.75893311 224.49918427 127.75893311 224.49918427 126.68408203 224.49835205 C115.19669117 224.45756803 104.38603402 223.57007298 93.375 220.125 C92.34947021 219.81151611 92.34947021 219.81151611 91.30322266 219.49169922 C56.58186333 208.53094852 29.45458169 181.46480502 12.72265625 149.78515625 C-8.98453039 107.35868691 -11.49433783 60.02263651 -6.1875 13.375 C-6.00429199 11.73857544 -6.00429199 11.73857544 -5.81738281 10.0690918 C-5.69331055 9.06144775 -5.56923828 8.05380371 -5.44140625 7.015625 C-5.33256104 6.11875977 -5.22371582 5.22189453 -5.11157227 4.29785156 C-4.36649168 0.97059758 -3.39424327 0.16163063 0 0 Z " fill="#FFFFFF" transform="translate(23.625,26.875)"/>
<path d="M0 0 C5.28287229 3.82106175 8.8280577 8.97250286 10.04296875 15.4140625 C10.66228005 22.67806797 9.97786171 28.87268422 5.68359375 34.89453125 C1.08875487 40.32928692 -3.73466122 43.18276162 -10.91796875 43.94921875 C-18.86205932 44.04539418 -24.60518635 43.54472096 -30.515625 37.96484375 C-36.42199425 31.47775234 -37.22722239 25.79890842 -37.08203125 17.1328125 C-36.50438571 10.6270796 -34.50598665 6.42866644 -30.01953125 1.73828125 C-20.43494807 -4.5285616 -10.2433388 -5.78121665 0 0 Z " fill="#FFFFFF" transform="translate(437.76953125,104.38671875)"/>
</svg>
