<svg xmlns="http://www.w3.org/2000/svg" width="1024" height="1024"><path d="M417 235h51l14 2 8 2 10 2 13 4 5 2 10 4 5 2 3 2 5 2 5 3 4 2 4 3 4 2 3 2 3 2 4 3 3 2 2 2 5 3 5 5 3 2 1 1v2h2l2 2 2 3 12 12 2 3 3 3 2 3 2 2 2 3 3 4 2 4 2 3 3 5 3 5 3 6 2 5 3 6 2 5 2 5 5 16 2 9 1 3 2 12 1 5 1 14v31l-1 15-2 10-1 6-2 6-1 5-1 2-2 7-1 2-2 7-2 4-2 5-2 5-2 3-1 3-2 3-1 3-2 3-3 6-2 2-1 2v6h2l3 3 1 2 3 2 1 1v2h2l1 1v2h2l1 1v2h2l1 1v2h2l1 1v2h2l1 1v2h2l2 2 1 2 3 2 11 11v2h2l2 2v2h2l1 1v2h2l1 1v2h2l1 1v2h2l1 1v2h2l1 1v2h2l1 1v2h2l2 2 1 2 3 2 2 2 2 3 4 3 1 1v2h2l1 1v2h2l1 1v2h2l1 1v2h2l1 1v2h2l2 2 1 2 3 2 1 1v2h2l1 1v2h2l4 4v2h2l2 2v2h2l3 3 1 2 3 2 1 1v2h2l1 1v2h2l1 1v2h2l1 1v2h2l2 2 2 3 10 10 2 3 2 3 2 5 2 7v14l-2 9-2 3-2 3-3 4-5 5-3 2-3 2-3 2-9 2h-13l-11-3-4-3-3-2-3-2-6-6-3-2-4-4v-2h-2l-1-1v-2h-2l-1-1v-2h-2l-1-1v-2h-2l-1-1v-2h-2l-2-2-2-3-4-3-1-1v-2h-2l-1-1v-2h-2l-1-1v-2h-2l-1-1v-2h-2l-1-1v-2h-2l-1-1v-2h-2l-1-1v-2h-2l-1-1v-2h-2l-1-1v-2h-2l-1-1v-2h-2l-1-1v-2h-2l-2-2v-2h-2l-3-3-2-3-2-2-3-2-1-1v-2h-2l-1-1v-2h-2l-1-1v-2h-2l-1-1v-2h-2l-1-1v-2h-2l-1-1v-2h-2l-1-1v-2h-2l-1-1v-2h-2l-7-7v-2h-2l-2-2v-2h-2l-2-2v-2h-2l-1-1v-2h-2l-1-1v-2h-2l-1-1v-2h-2l-1-1v-2h-2l-1-1v-2h-2l-1-1v-2h-2l-1-1v-2h-2l-7-7h-4l-4 3-5 3-14 7-1 1-5 2-7 3-5 2-4 1-5 2-4 1-2 1-9 2-3 1-16 3h-61l-12-2-6-1-2-1-9-2-5-2-10-3-11-4-3-2-3-1-3-2-5-2-5-3-4-2-3-2-5-3-3-2-2-2-4-2-3-3-3-2-3-3-3-2-22-22-2-3-4-4-2-3-2-2-1-2v-2h-2l-2-2-2-5-3-4-2-3-3-5-2-3-4-10-2-3-2-5-3-7-1-2-4-14-2-6-3-14-2-12v-55l3-17 2-9 2-6 1-5 2-5 4-11 2-4 2-5 2-4 2-3 1-3 2-3 1-3 2-2 3-5 2-3 2-3 3-4 3-4 3-4 3-4 2-2 2-3 1-1h2v-2l12-12h2v-2l2-2 3-2 2-2 3-2 3-3 4-2 2-2 3-2 3-2h3v-2l2-2 10-5 1-1 5-2 3-2 4-2 6-2 7-3 5-2 5-2 5-1 3-1 9-2 7-2Zm24 77l-14 1-6 1-3 1-6 1-10 3-5 2-10 4-1 1-5 2-4 3-1 1-5 2-4 3-4 3-4 3-5 5-2 1-2 3-2 1-2 3-4 4-2 3-3 4-3 4-2 5-2 3-3 5-3 5-4 11-2 5-2 7-3 14-1 14v5l1 16 2 10 1 5 3 10 2 5 1 3 1 1 2 6 2 3 4 8 3 4 3 4 2 4 2 2 2 3 13 13 3 2 3 3 3 2 3 2 3 2 4 3 18 9 11 4 5 2 5 1 3 1 6 1 19 2h3l20-2 6-1 2-1 5-1 9-3 5-2 3-1 3-2 5-2 4-2 3-2 5-3 5-3 2-2 3-2 2-2 3-2 4-4 2-1 2-3 4-4 2-3 2-1 3-5 2-2 3-5 3-5 3-5 3-6 4-10 3-7 3-13 1-6 2-18-1-10-1-11-1-6-1-3-1-5-2-5-2-7-3-7-8-16-3-4-2-3-2-3-3-3-2-3-2-2-2-3-7-7-3-2-1-2-4-2-2-2-3-2-4-3-4-3-8-4-3-1-3-2-3-1-1-1-6-2-2-1-10-3-9-2-7-1-15-1Z" fill="#88e0f8"/></svg>