<svg xmlns="http://www.w3.org/2000/svg" width="1024" height="1024"><path d="M488 259h27l5 1 8 3 3 3v3h4l5 5 2 1 4 1 5 5v5h4l3 3 2 3 3 4 2 6 4 8 2 7 1 2 2 7 2 5 1 4 1 2v7l4 4 2 4 2 7 1 2 2 7 2 5 1 4 1 2v7l4 4 2 4 2 7 1 2 2 7 2 5 1 4 1 2v7l4 4 2 4 3 10 5 15 2 4 2 5 1 4 2 4 3 10 5 15 2 4 2 5 2 7 1 1 2 8 2 5 4 12 3 7 1 2 2 7 2 5 1 4 2 5 3 8 1 4 3 7 1 2 2 7 2 5 1 4 2 5 2 5 2 7 1 2 2 8 1 2 1 5v19l-1 5-4 8-3 4-4 4h-2v2l-3 3-5 3-6 3-4 1h-28l-7-2-6-3-4-3-8-8-1-4-4-4-2-3-2-8-1-2-2-7-1-2-2-7-1-2-2-9-3-10-2-5-1-4-23-1H444l-20 1-3 9-1 4-2 5-1 4-2 5-3 9-1 4-1 2-2 9-2 3-1 4-3 6-2 2-2 3-6 6-4 2-2 2-4 2-3 1-5 1h-26l-5-1-5-2-4-2-4-3-10-10-2-3-2-3-2-4-2-10v-15l2-11 2-4 4-4v-7l2-5 1-4 2-5 1-4 4-8 2-7 2-5 4-4 1-4 2-3v-8l1-2 3-10 2-3 2-2 1-9 1-2 1-4 2-3 3-10 1-2 1-4 2-5 2-3 3-10 4-12 2-4 1-4 1-1 2-7 2-5 2-6 1-2 1-4 2-4 1-4 2-4 5-15 3-7 1-2 1-4 2-5 4-12 2-4 1-4 2-4 1-4 2-5 1-3 4-4v-7l1-2 1-4 2-4 5-15 3-7 1-2 1-4 2-5 2-6 2-5 2-3 1-3 2-3 2-3 4-4 2-3 11-11 2-1 4-1 4-2h2v-2l3-3 8-3Zm12 112l-3 10-2 5-1 4-1 2-2 8-2 5-1 4-2 5-1 5-4 4-2 6-1 12-1 2-2 7-1 2-2 7-1 2-1 4-2 5-1 4-2 5-4 14-2 5-1 4-1 2-2 9-1 1-1 3v4h95l-1-5-2-5-2-9-1-2-2-8-2-5-1-4-2-5-1-4-2-5-1-4-1-2-2-7-1-2-2-7-1-2-2-9-1-2-2-8-1-2-2-7-1-2-2-7-1-2-2-7-1-2-2-7-1-2-2-7-1-2-1-8ZM268 728h461l7 2 5 3 3 2 8 8 2 4 1 1 2 8 1 2v16l-2 5-1 3-4 4-1 4-2 3-1 1h-2v2l-2 2-5 2-1 1-6 2-2 1H271l-7-2-6-3-6-6v-2h-2l-3-3-2-4-1-1-2-5-1-5v-14l1-5 2-5 1-3 5-5h5v-5l3-3Z" fill="#88e0f8"/></svg>